<svg xmlns="http://www.w3.org/2000/svg" viewBox="0 0 512 512" fill="none">
  <defs>
    <linearGradient id="bgGrad" x1="0" y1="0" x2="0" y2="1">
      <stop offset="0%" stop-color="#0F766E"/>
      <stop offset="100%" stop-color="#064E4A"/>
    </linearGradient>
    <linearGradient id="gold" x1="0" y1="0" x2="1" y2="1">
      <stop offset="0%" stop-color="#FCD34D"/>
      <stop offset="40%" stop-color="#D4A017"/>
      <stop offset="100%" stop-color="#B8941E"/>
    </linearGradient>
    <filter id="shadow">
      <feDropShadow dx="0" dy="6" stdDeviation="10" flood-color="#000" flood-opacity="0.4"/>
    </filter>
    <clipPath id="circleClip">
      <circle cx="256" cy="232" r="146"/>
    </clipPath>
  </defs>
  <rect width="512" height="512" rx="114" fill="url(#bgGrad)"/>
  <rect x="14" y="14" width="484" height="484" rx="100" fill="none" stroke="url(#gold)" stroke-width="1.5" opacity="0.15"/>
  <rect x="20" y="20" width="472" height="472" rx="94" fill="none" stroke="url(#gold)" stroke-width="0.5" opacity="0.08"/>
  <g filter="url(#shadow)">
    <circle cx="256" cy="232" r="154" fill="url(#gold)"/>
    <circle cx="256" cy="232" r="146" fill="#064E4A"/>
    <g clip-path="url(#circleClip)">
      <image href="images/sheikh-zabuur.jpg" x="106" y="82" width="300" height="300" preserveAspectRatio="xMidYMid slice"/>
    </g>
  </g>
  <g transform="translate(365, 330)" filter="url(#shadow)">
    <circle cx="0" cy="0" r="46" fill="url(#bgGrad)" stroke="url(#gold)" stroke-width="3"/>
    <path d="M -18 -20 Q -2 -22, 14 -18 C 18 -16, 19 -10, 16 -2 Q 10 12, 0 24" fill="none" stroke="url(#gold)" stroke-width="6" stroke-linecap="round"/>
    <polygon points="-2,-38 10,-28 -2,-18 -14,-28" fill="url(#gold)"/>
  </g>
</svg>
