<svg xmlns="http://www.w3.org/2000/svg" viewBox="0 0 1242 2688" fill="none">
  <defs>
    <linearGradient id="bg" x1="0" y1="0" x2="0" y2="1">
      <stop offset="0%" stop-color="#0F766E"/>
      <stop offset="50%" stop-color="#064E4A"/>
      <stop offset="100%" stop-color="#111827"/>
    </linearGradient>
    <linearGradient id="gold" x1="0" y1="0" x2="1" y2="1">
      <stop offset="0%" stop-color="#FCD34D"/>
      <stop offset="40%" stop-color="#D4A017"/>
      <stop offset="100%" stop-color="#B8941E"/>
    </linearGradient>
    <filter id="shadow">
      <feDropShadow dx="0" dy="6" stdDeviation="12" flood-color="#000" flood-opacity="0.4"/>
    </filter>
    <style>
      @import url('https://fonts.googleapis.com/css2?family=Noto+Kufi+Arabic:wght@700&family=Poppins:wght@400;600;700;800&display=swap');
      .ar { font-family: 'Noto Kufi Arabic', 'Traditional Arabic', sans-serif; font-weight: 700; }
      .en-title { font-family: 'Poppins', system-ui, sans-serif; font-weight: 800; }
      .en-tag { font-family: 'Poppins', system-ui, sans-serif; font-weight: 400; letter-spacing: 6px; }
    </style>
  </defs>
  <rect width="1242" height="2688" fill="url(#bg)"/>
  <g opacity="0.03" fill="none" stroke="#FFFFFF" stroke-width="1">
    <line x1="0" y1="0" x2="1242" y2="2688"/>
    <line x1="621" y1="0" x2="621" y2="2688"/>
    <line x1="0" y1="1344" x2="1242" y2="1344"/>
  </g>
  <g filter="url(#shadow)">
    <path d="M 421 1050 Q 621 1000, 821 1050 C 855 1058, 862 1082, 848 1112 Q 815 1180, 745 1275 Q 715 1320, 670 1350"
          fill="none" stroke="url(#gold)" stroke-width="60" stroke-linecap="round"/>
    <path d="M 670 1350 Q 630 1400, 580 1420"
          fill="none" stroke="url(#gold)" stroke-width="5" stroke-linecap="round" opacity="0.35"/>
    <path d="M 670 1350 Q 710 1400, 770 1410"
          fill="none" stroke="url(#gold)" stroke-width="5" stroke-linecap="round" opacity="0.35"/>
    <polygon points="550,780 630,850 550,920 470,850" fill="url(#gold)"/>
    <polygon points="550,810 596,850 550,890 504,850" fill="#064E4A"/>
  </g>
  <text x="621" y="1550" class="ar" font-size="48" fill="url(#gold)" text-anchor="middle">الشيخ محمد زبور</text>
  <text x="621" y="1680" class="en-title" font-size="64" fill="#FFFFFF" text-anchor="middle" letter-spacing="-1">Sheikh Mohammed Zabuur</text>
  <line x1="421" y1="1750" x2="821" y2="1750" stroke="url(#gold)" stroke-width="2" opacity="0.3"/>
  <text x="621" y="1820" class="en-tag" font-size="22" fill="rgba(255,255,255,0.4)" text-anchor="middle">AUTHENTIC ISLAMIC LESSONS</text>
  <rect x="521" y="1920" width="200" height="4" rx="2" fill="url(#gold)" opacity="0.6"/>
</svg>
