<svg xmlns="http://www.w3.org/2000/svg" viewBox="0 0 100 100" fill="none">
  <defs>
    <linearGradient id="a" x1="0" y1="0" x2="0" y2="1">
      <stop offset="0%" stop-color="#10B981"/>
      <stop offset="100%" stop-color="#047857"/>
    </linearGradient>
    <linearGradient id="b" x1="0" y1="0" x2="1" y2="1">
      <stop offset="0%" stop-color="#FCD34D"/>
      <stop offset="50%" stop-color="#F59E0B"/>
      <stop offset="100%" stop-color="#D97706"/>
    </linearGradient>
    <linearGradient id="c" x1="0" y1="0" x2="1" y2="0">
      <stop offset="0%" stop-color="#10B981"/>
      <stop offset="100%" stop-color="#34D399"/>
    </linearGradient>
    <filter id="g">
      <feGaussianBlur stdDeviation="1.5" result="b"/>
      <feMerge><feMergeNode in="b"/><feMergeNode in="SourceGraphic"/></feMerge>
    </filter>
  </defs>
  <rect width="100" height="100" rx="22" fill="#0f172a"/>
  <rect x="2" y="2" width="96" height="96" rx="20" stroke="url(#c)" stroke-width="1.5" opacity="0.3"/>
  <circle cx="50" cy="48" r="32" fill="#10B981" opacity="0.06" filter="url(#g)"/>
  <path d="M24,76 L24,36 Q50,18 76,36 L76,76 Q50,62 24,76Z" fill="url(#a)" opacity="0.3"/>
  <path d="M28,72 L28,40 Q50,26 72,40 L72,72 Q50,58 28,72Z" fill="url(#a)" opacity="0.55"/>
  <path d="M32,68 L32,44 Q50,32 68,44 L68,68 Q50,54 32,68Z" fill="url(#a)" opacity="0.8"/>
  <line x1="50" y1="22" x2="50" y2="78" stroke="url(#b)" stroke-width="2" opacity="0.5"/>
  <path d="M28,40 Q50,8 72,40" fill="none" stroke="url(#b)" stroke-width="2.5" stroke-linecap="round"/>
  <rect x="16" y="30" width="3" height="48" rx="1.5" fill="url(#b)"/>
  <circle cx="17.5" cy="24" r="3" fill="url(#b)" filter="url(#g)"/>
  <rect x="81" y="30" width="3" height="48" rx="1.5" fill="url(#b)"/>
  <circle cx="82.5" cy="24" r="3" fill="url(#b)" filter="url(#g)"/>
  <g transform="translate(50, 8)" filter="url(#g)">
    <path d="M-5,0 A6,6 0 1,1 5,0 A4,4 0 1,0 -5,0Z" fill="url(#b)"/>
    <circle cx="8" cy="-6" r="1.8" fill="url(#b)"/>
  </g>
</svg>